<svg xmlns="http://www.w3.org/2000/svg" width="141.161" height="181.585" viewBox="0 0 141.161 181.585"><path d="M4.912 0 15.8 46.225A69.2 69.2 0 0 0 2.758 86.383a69 69 0 0 0 .15 2.107c-3.782 20.143-8.323 63.797 17.99 83.6 22.556 16.975 81.196 6.014 81.196 6.014l-6.203-11.278s-52.003 6.694-67.895-7.705c-7.307-6.62-11.664-19.252-12.076-32.416a69.2 69.2 0 0 0 56.039 28.879 69.2 69.2 0 0 0 60.846-36.238c-5.69 7.384-16.576 14.64-29.778 14.64-19.68 0-34.88-15.519-34.88-35.039 0-21.92 17.12-44.8 36.16-44.8 11.84 0 17.76 3.84 23.84 11.04 1.76 1.92 2.4 3.68 2.4 5.6 0 4.16-3.52 7.36-7.68 7.36-2.72 0-4-.64-6.08-3.2-2.88-3.2-5.92-6.24-12.32-6.24-10.24 0-21.28 14.72-21.28 29.92 0 13.28 9.76 20.799 19.52 20.799 9.12 0 14.08-4 17.76-8.96 1.44-1.92 3.84-4 6.88-4 4.16 0 7.52 3.36 7.52 7.04 0 .759-.063 1.477-.207 2.158a69.2 69.2 0 0 0 6.5-29.281 69.2 69.2 0 0 0-12.414-39.514l10.258-43.566-36.984 20.761a69.2 69.2 0 0 0-30.061-6.882 69.2 69.2 0 0 0-26.674 5.48zm33.205 60.09a8.9 8.9 0 0 1 8.899 8.9 8.9 8.9 0 0 1-8.899 8.9 8.9 8.9 0 0 1-8.9-8.9 8.9 8.9 0 0 1 8.9-8.9" style="fill:#000;fill-opacity:1"/></svg>